# xmcd
#
# Track frame offsets:
#  150
#  15460
#  31880
#  46590
#  60170
#  72257
#  91057
#  103797
#  118922
#  128770
#  142832
#  159622
#  173770
#  187060
#  204847
#
# Disc length: 2911 seconds
#
# Revision: 5
# Processed by: cddbd v1.5.1PL2 Copyright (c) Steve Scherf et al.
# Submitted via: Collectorz.com_Music_Collector 6.10
#
DISCID=ba0b5d0f
DTITLE=Anne Murray - Fifteen Of The Best
DYEAR=1992
DGENRE=Country
TTITLE0=Shadows In The Moonlight
TTITLE1=You Needed Me
TTITLE2=Could I Have This Dance
TTITLE3=Feed The Fire
TTITLE4=Blessed Are The Believers
TTITLE5=I Can See Arkansas
TTITLE6=I Just Fall In Love Again
TTITLE7=New Way Out
TTITLE8=Snowbird
TTITLE9=Danny's Song
TTITLE10=Even The Nights Are Better
TTITLE11=A Little Good News
TTITLE12=Just Another Woman In Love
TTITLE13=Broken Hearted Me
TTITLE14=Oh Yes I Do
EXTD=
EXTT0=
EXTT1=
EXTT2=
EXTT3=
EXTT4=
EXTT5=
EXTT6=
EXTT7=
EXTT8=
EXTT9=
EXTT10=
EXTT11=
EXTT12=
EXTT13=
EXTT14=
PLAYORDER=
